<svg width="25" height="25" viewBox="0 0 25 25" fill="none" xmlns="http://www.w3.org/2000/svg">
<path d="M16.4063 8.59375C17.4423 8.59375 18.4358 8.1822 19.1684 7.44964C19.901 6.71707 20.3125 5.7235 20.3125 4.6875C20.3125 3.6515 19.901 2.65793 19.1684 1.92536C18.4358 1.1928 17.4423 0.78125 16.4063 0.78125H8.59375C7.55775 0.78125 6.56418 1.1928 5.83162 1.92536C5.09905 2.65793 4.6875 3.6515 4.6875 4.6875C4.6875 5.7235 5.09905 6.71707 5.83162 7.44964C6.56418 8.1822 7.55775 8.59375 8.59375 8.59375C7.55775 8.59375 6.56418 9.0053 5.83162 9.73786C5.09905 10.4704 4.6875 11.464 4.6875 12.5C4.6875 13.536 5.09905 14.5296 5.83162 15.2621C6.56418 15.9947 7.55775 16.4062 8.59375 16.4062C7.82117 16.4062 7.06593 16.6353 6.42356 17.0646C5.78118 17.4938 5.2805 18.1039 4.98485 18.8176C4.68919 19.5314 4.61184 20.3168 4.76256 21.0746C4.91328 21.8323 5.28532 22.5283 5.83162 23.0746C6.37791 23.6209 7.07394 23.993 7.83168 24.1437C8.58942 24.2944 9.37484 24.2171 10.0886 23.9214C10.8024 23.6257 11.4125 23.1251 11.8417 22.4827C12.2709 21.8403 12.5 21.0851 12.5 20.3125V8.59375H16.4063Z" fill="black"/>
<path d="M16.4062 16.4062C18.5636 16.4062 20.3125 14.6574 20.3125 12.5C20.3125 10.3426 18.5636 8.59375 16.4062 8.59375C14.2489 8.59375 12.5 10.3426 12.5 12.5C12.5 14.6574 14.2489 16.4062 16.4062 16.4062Z" fill="black"/>
</svg>
