<svg width="25" height="25" viewBox="0 0 25 25" fill="none" xmlns="http://www.w3.org/2000/svg">
<path d="M1.5625 1.5625V23.4375H23.4375V1.5625H1.5625ZM13.2812 18.5547C13.2812 20.6841 12.0234 21.7222 10.2026 21.7222C8.55811 21.7222 7.60352 20.8706 7.11914 19.8428L8.79297 18.8296C9.11572 19.4023 9.36084 19.8867 10.0654 19.8867C10.6514 19.8867 11.1328 19.6226 11.1328 18.5947V11.7188H13.2812V18.5547ZM18.1323 21.6733C16.2236 21.6733 14.9902 20.812 14.3882 19.6226L16.0645 18.6523C16.5039 19.3721 17.0776 19.8516 18.0908 19.8516C18.9424 19.8516 19.437 19.4746 19.437 18.8872C19.437 18.1826 18.9277 17.9331 17.9878 17.52L17.4741 17.2993C15.9907 16.6685 15.0073 15.8755 15.0073 14.2012C15.0073 12.6597 16.1816 11.5337 18.0171 11.5337C19.3242 11.5337 20.2632 11.9399 20.9395 13.1294L19.3359 14.1602C18.9834 13.5288 18.6035 13.2812 18.0146 13.2812C17.4126 13.2812 17.0308 13.6631 17.0308 14.1602C17.0308 14.7769 17.4126 15.0264 18.2935 15.4082L18.8071 15.6284C20.5547 16.3774 21.5386 17.1421 21.5386 18.8589C21.5391 20.7095 20.0854 21.6733 18.1323 21.6733Z" fill="black"/>
</svg>
