<svg width="25" height="25" viewBox="0 0 25 25" fill="none" xmlns="http://www.w3.org/2000/svg">
<path d="M20.0518 8.82421C19.8021 8.73893 19.5506 8.6595 19.2974 8.58593C19.3394 8.41503 19.3781 8.24316 19.4136 8.07031C19.9849 5.29199 19.6113 3.05371 18.3364 2.31689C17.1157 1.60986 15.1138 2.34667 13.0942 4.10839C12.8957 4.28222 12.7012 4.46126 12.5107 4.6455C12.3838 4.52311 12.2536 4.40332 12.1201 4.28613C10.0034 2.40234 7.88184 1.60888 6.6084 2.34814C5.3877 3.05664 5.0249 5.16064 5.53906 7.79394C5.59049 8.05436 5.64827 8.31363 5.7124 8.57177C5.42059 8.6545 5.13124 8.74568 4.84473 8.84521C2.36621 9.71191 0.78125 11.0708 0.78125 12.48C0.78125 13.936 2.48242 15.396 5.06689 16.2812C5.27653 16.3525 5.48812 16.4188 5.70166 16.48C5.63232 16.7563 5.57096 17.0358 5.51758 17.3184C5.0293 19.9062 5.41016 21.9604 6.62842 22.6645C7.88672 23.3916 9.99756 22.6445 12.0552 20.8428C12.2179 20.7002 12.3807 20.5496 12.5435 20.3911C12.7492 20.59 12.9608 20.783 13.1782 20.9702C15.1704 22.688 17.1377 23.3818 18.354 22.6758C19.6113 21.9463 20.02 19.7393 19.4893 17.0542C19.4486 16.8491 19.4017 16.6398 19.3486 16.4263C19.4971 16.3823 19.6424 16.3369 19.7847 16.29C22.4702 15.3979 24.2197 13.9556 24.2197 12.4814C24.2187 11.0654 22.583 9.69775 20.0518 8.82421ZM13.7529 4.86523C15.4829 3.35595 17.1001 2.76025 17.8374 3.18603C18.6221 3.63964 18.9272 5.46875 18.4341 7.86767C18.4015 8.02392 18.3664 8.17968 18.3286 8.33496C17.2962 8.10013 16.2493 7.9344 15.1948 7.83886C14.5911 6.96917 13.9293 6.14128 13.2139 5.36084C13.389 5.19091 13.5684 5.02571 13.752 4.86523H13.7529ZM7.70166 13.6841C7.91357 14.0942 8.13509 14.4993 8.36621 14.8994C8.60156 15.3076 8.84684 15.7098 9.10205 16.106C8.3765 16.0271 7.65549 15.9109 6.94189 15.7578C7.14893 15.0879 7.40381 14.3921 7.70166 13.6841ZM7.70166 11.3242C7.40869 10.6313 7.16064 9.9497 6.95703 9.2915C7.62598 9.1416 8.33887 9.01904 9.08203 8.92626C8.83301 9.31494 8.59342 9.7093 8.36328 10.1094C8.13314 10.5094 7.91211 10.9144 7.7002 11.3242H7.70166ZM8.23389 12.5044C8.54248 11.8608 8.87484 11.2296 9.23096 10.6108C9.58675 9.99234 9.9655 9.38802 10.3672 8.79785C11.0645 8.74511 11.7793 8.71728 12.5015 8.71728C13.2236 8.71728 13.9429 8.74511 14.6396 8.79833C15.0371 9.3872 15.4136 9.98942 15.769 10.605C16.1245 11.2205 16.4613 11.8488 16.7793 12.4897C16.4655 13.1356 16.1296 13.7694 15.7715 14.3911C15.4163 15.0096 15.042 15.6157 14.6484 16.2095C13.9526 16.2583 13.2324 16.2852 12.5 16.2852C11.7676 16.2852 11.061 16.2622 10.3779 16.2178C9.97331 15.6256 9.59147 15.0187 9.23242 14.397C8.87337 13.7752 8.54004 13.1444 8.23242 12.5044H8.23389ZM16.6382 14.8926C16.8742 14.4831 17.1007 14.0682 17.3179 13.6479C17.6155 14.3228 17.8782 15.0125 18.105 15.7144C17.383 15.8769 16.653 16.0016 15.918 16.0879C16.166 15.6943 16.4061 15.2959 16.6382 14.8926ZM17.3081 11.3247C17.092 10.9129 16.8672 10.506 16.6338 10.104C16.4059 9.70751 16.1685 9.31591 15.9214 8.92919C16.6689 9.02392 17.3862 9.1499 18.0586 9.30371C17.8424 9.98951 17.5919 10.664 17.3081 11.3247ZM12.5112 6.07812C12.9988 6.61088 13.4592 7.16791 13.8906 7.74707C12.9678 7.70312 12.0443 7.70312 11.1201 7.74707C11.5757 7.14453 12.042 6.58544 12.5112 6.07812ZM7.1123 3.21582C7.89648 2.76074 9.63037 3.41113 11.458 5.03564C11.5747 5.13964 11.6924 5.24853 11.8096 5.36132C11.0905 6.14165 10.424 6.96883 9.81445 7.8374C8.76233 7.93219 7.71748 8.0953 6.68652 8.32568C6.62695 8.08609 6.57324 7.84488 6.52539 7.60205C6.0835 5.34472 6.37598 3.64306 7.1123 3.21582ZM5.96924 15.5132C5.77393 15.4575 5.58105 15.3971 5.39063 15.332C4.24805 14.9414 3.3042 14.4316 2.65625 13.8765C2.07617 13.3789 1.78223 12.8823 1.78223 12.48C1.78223 11.625 3.05469 10.5342 5.17676 9.79443C5.44336 9.70165 5.71224 9.61686 5.9834 9.54003C6.29856 10.5529 6.68025 11.5438 7.12598 12.5063C6.67494 13.4822 6.28852 14.4866 5.96924 15.5132ZM11.3955 20.0869C10.4858 20.8838 9.57471 21.4487 8.77148 21.7334C8.0498 21.9888 7.4751 21.9961 7.12793 21.7954C6.38867 21.3682 6.08105 19.7183 6.50049 17.5054C6.55029 17.245 6.60726 16.9845 6.67139 16.7241C7.71266 16.9484 8.768 17.1016 9.83008 17.1826C10.4456 18.0557 11.1176 18.8876 11.8418 19.6728C11.6963 19.8159 11.5474 19.9536 11.3955 20.0869ZM12.5391 18.9531C12.0645 18.4399 11.5908 17.8721 11.1289 17.2617C11.5778 17.2793 12.0348 17.2881 12.5 17.2881C12.9775 17.2881 13.4502 17.2778 13.916 17.2568C13.4861 17.8453 13.0266 18.4114 12.5391 18.9531ZM18.6191 20.3491C18.4795 21.103 18.1987 21.606 17.8516 21.8071C17.1128 22.2358 15.5332 21.6787 13.8301 20.2095C13.6348 20.0415 13.4395 19.8613 13.2407 19.6724C13.9508 18.884 14.6071 18.0488 15.2051 17.1724C16.273 17.0819 17.3335 16.9179 18.3789 16.6816C18.4268 16.875 18.4691 17.0644 18.5059 17.25C18.7407 18.4365 18.7744 19.5098 18.6191 20.3491ZM19.4688 15.3374C19.3408 15.3799 19.209 15.4209 19.0752 15.4609C18.7474 14.4433 18.3508 13.4492 17.8882 12.4853C18.3335 11.5344 18.7145 10.5546 19.0288 9.55273C19.2686 9.62255 19.5015 9.6958 19.7256 9.77343C21.8945 10.5215 23.2178 11.6289 23.2178 12.48C23.2178 13.3882 21.7886 14.5669 19.4688 15.3374Z" fill="black"/>
<path d="M12.5 14.5776C12.9156 14.579 13.3222 14.457 13.6683 14.2271C14.0145 13.9972 14.2847 13.6698 14.4447 13.2863C14.6046 12.9027 14.6472 12.4804 14.5669 12.0726C14.4867 11.6649 14.2873 11.2901 13.9939 10.9958C13.7005 10.7015 13.3264 10.5009 12.919 10.4193C12.5115 10.3377 12.089 10.3789 11.7049 10.5376C11.3209 10.6963 10.9926 10.9654 10.7616 11.3108C10.5305 11.6563 10.4072 12.0625 10.4072 12.478C10.4067 12.7533 10.4603 13.0261 10.5652 13.2806C10.6701 13.5352 10.8241 13.7666 11.0185 13.9616C11.2128 14.1565 11.4437 14.3113 11.6979 14.417C11.9521 14.5227 12.2247 14.5773 12.5 14.5776Z" fill="black"/>
</svg>
