<svg width="25" height="25" viewBox="0 0 25 25" fill="none" xmlns="http://www.w3.org/2000/svg">
<g clip-path="url(#clip0_14_4192)">
<path d="M24.9892 16.0191C24.9174 15.437 24.6225 14.9322 24.1103 14.5166C24.1039 14.5089 24.0969 14.5017 24.0893 14.4951L24.0634 14.4766L24.0551 14.4707L23.7832 14.2754L23.7739 14.2686L23.7392 14.2442C23.7265 14.2368 23.7129 14.231 23.6987 14.2271C22.8383 13.7149 21.414 13.356 19.2348 14.125C18.7148 13.25 18.6557 12.5489 19.0039 11.4746C19.0659 11.2876 19.0083 11.1641 18.8227 11.084C18.4497 10.9253 17.9389 11.0064 17.5766 11.1021C17.4077 11.146 17.3061 11.2417 17.2739 11.3867C17.0444 12.461 16.3774 13.4424 15.7324 14.3897L15.6943 14.4453C15.2968 13.6026 15.3793 12.9497 15.6562 12.1319C15.7114 11.9688 15.6679 11.8604 15.5151 11.7793C15.0883 11.5591 14.4482 11.7105 14.1933 11.7857C13.8701 11.8799 13.5234 12.7534 13.1362 13.7993C13.0385 14.0625 12.9545 14.2876 12.9042 14.3926C12.7846 14.6367 12.6704 14.9151 12.5493 15.2105C12.2758 15.8789 11.9677 16.6314 11.5273 17.104C11.3671 16.75 11.6191 16.1919 11.8637 15.6504C12.1533 15.0103 12.4267 14.4053 12.1118 14.0191C12.062 13.958 12.0002 13.9078 11.9302 13.8715C11.8603 13.8352 11.7836 13.8137 11.705 13.8081C11.6025 13.8003 11.4995 13.8171 11.4047 13.857C11.4375 13.5811 11.4389 13.3633 11.3583 13.1001C11.2431 12.7246 10.9438 12.5142 10.5317 12.5254C9.59321 12.5528 8.79927 13.252 8.2978 13.834C7.96382 14.2246 7.22359 14.5225 6.57368 14.7837C6.31685 14.8926 6.07271 14.9903 5.86909 15.0879C5.54439 14.8135 5.13179 14.5367 4.69722 14.2442C3.47651 13.4248 2.09321 12.4956 2.04536 11.2359C1.977 9.37503 4.09614 8.0552 5.94575 7.11331C7.34761 6.40042 8.56636 5.92776 9.67183 5.66946C11.2246 5.30667 12.5361 5.37991 13.5693 5.88626C14.1347 6.16312 14.3994 6.76517 14.2314 7.38431C13.7919 8.99319 11.9711 10.0957 10.414 10.5918C9.47603 10.8907 8.67769 11.0157 7.97261 10.9746C7.08882 10.9234 6.36714 10.48 6.05855 10.291C6.00911 10.2573 5.95683 10.2279 5.9023 10.2032L5.88814 10.1997C5.86019 10.1928 5.83087 10.1937 5.8034 10.2023C5.77592 10.2109 5.75135 10.2269 5.73237 10.2486C5.6689 10.3242 5.69136 10.4439 5.71431 10.5044C6.0146 11.2891 6.63472 11.7847 7.55708 11.9776C7.85895 12.038 8.16622 12.0673 8.47407 12.065C10.6328 12.065 13.3872 10.8203 14.3989 9.79544C15.0888 9.0972 15.5913 8.37942 15.7993 7.14163C16.0166 5.84524 15.1376 4.94437 14.2421 4.52933C12.0659 3.52493 9.59419 3.9219 7.90376 4.43167C5.92622 5.02786 3.88032 6.11185 2.29146 7.40677C0.332472 9.00198 -0.375536 10.4829 0.185987 11.8135C0.762648 13.1773 2.1689 14.0303 3.52876 14.8555C3.96821 15.1216 4.38618 15.375 4.76265 15.6367C4.64937 15.6919 4.53364 15.7481 4.41597 15.8042C3.27437 16.3575 1.97944 16.98 1.26118 18.0088C0.739698 18.7583 0.642042 19.5044 0.971144 20.2266C1.14692 20.6109 1.45942 20.8716 1.89351 21.0015C2.11931 21.0655 2.35317 21.0965 2.58784 21.0938C3.43306 21.0938 4.36323 20.752 4.86958 20.4361C5.76411 19.8745 6.3437 19.1206 6.59273 18.1953C6.81441 17.3721 6.76118 16.5542 6.43892 15.8242L7.53511 15.2715C7.0063 17.0293 7.41157 18.0791 7.85689 18.6582C8.02095 18.8716 8.31685 19 8.64741 19.0059C8.97798 19.0117 9.28218 18.8872 9.45405 18.6753C9.77925 18.2725 10.0195 17.8013 10.2407 17.3301C10.229 17.6377 10.2436 17.9492 10.3486 18.2134C10.4428 18.4512 10.5981 18.6089 10.7983 18.6695C11.0112 18.7344 11.2607 18.6797 11.5009 18.5157C12.5834 17.7749 13.3237 15.9971 13.9184 14.5679C14.0029 14.3648 14.0839 14.1695 14.1625 13.9868C14.3097 14.5134 14.5144 15.0222 14.7729 15.5039C14.8305 15.6084 14.8256 15.6543 14.7475 15.7403C14.6298 15.8692 14.4658 16.0249 14.2919 16.19C13.7656 16.6895 13.1103 17.313 13.0224 17.8614C12.9882 18.0811 13.1396 18.2813 13.3745 18.3267C14.081 18.4673 14.9321 18.2617 15.6518 17.7774C16.3061 17.3379 16.5522 16.7251 16.3842 15.9615C16.2216 15.2261 16.5927 14.313 17.4873 13.2456C17.6337 13.8575 17.8291 14.3521 18.0986 14.7852L18.0913 14.791C17.4399 15.3599 16.5473 16.1387 16.686 17.0835C16.6976 17.1734 16.7279 17.2598 16.7748 17.3373C16.8217 17.4149 16.8842 17.4817 16.9584 17.5337C17.0378 17.5873 17.1273 17.6238 17.2214 17.6411C17.3155 17.6585 17.4122 17.6561 17.5053 17.6343C18.3584 17.4551 19.0004 17.0943 19.4672 16.5323C19.934 15.9702 19.7636 15.3472 19.6064 14.8638C20.8271 14.5327 21.914 14.541 22.9316 14.8882C23.5029 15.0835 23.9125 15.4043 24.1489 15.8472C24.4462 16.4043 24.2856 16.9185 23.6953 17.295C23.5141 17.4107 23.4267 17.4815 23.4213 17.5708C23.4201 17.5916 23.424 17.6123 23.4325 17.6312C23.441 17.6502 23.4539 17.6668 23.4702 17.6797C23.5385 17.7359 23.7495 17.8335 24.2265 17.5332C24.666 17.2574 24.9238 16.8819 24.9897 16.4102C25.003 16.2801 25.0028 16.1491 24.9892 16.0191ZM5.47114 17.2427L5.46626 17.3052C5.39009 18.02 5.02681 18.6431 4.38472 19.1607C3.9814 19.4859 3.54341 19.6856 3.15181 19.7237C2.87837 19.75 2.67964 19.7129 2.56148 19.6128C2.4731 19.5381 2.42573 19.4263 2.41499 19.271C2.33491 18.0269 4.28609 16.7906 5.38423 16.3838C5.4626 16.6629 5.49201 16.9535 5.47114 17.2427ZM10.4687 13.7339C10.288 14.7637 9.76118 16.7075 8.93306 17.4619C8.89351 17.4981 8.8603 17.5108 8.84517 17.5074C8.83003 17.5039 8.81831 17.4859 8.8061 17.4585C8.52974 16.8179 8.63179 15.7359 9.05025 14.8858C9.37202 14.2305 9.83149 13.7964 10.3452 13.6651C10.3665 13.6592 10.3885 13.6561 10.4106 13.6558C10.4279 13.6546 10.4451 13.6592 10.4594 13.669C10.4655 13.6785 10.4694 13.6893 10.471 13.7005C10.4726 13.7116 10.4718 13.723 10.4687 13.7339ZM14.5454 17.4878C14.3896 17.6504 14.1762 17.6284 14.2265 17.5689L15.0195 16.7271C14.9555 17.0166 14.7666 17.2564 14.5454 17.4878ZM17.8349 16.7598C17.7595 16.797 17.6779 16.82 17.5942 16.8277C17.5717 16.3848 18.0009 15.8863 18.4243 15.5537C18.538 16.0157 18.3051 16.5039 17.8349 16.7598Z" fill="black"/>
</g>
<defs>
<clipPath id="clip0_14_4192">
<rect width="25" height="25" fill="white"/>
</clipPath>
</defs>
</svg>
